<svg width="908" height="263" viewBox="0 0 908 263" fill="none" xmlns="http://www.w3.org/2000/svg">
<g filter="url(#filter0_d_170_198)">
<rect x="4" width="900" height="255" rx="27" fill="#F0F0F0"/>
</g>
<path d="M255.379 207L262.243 183.57H266.731L273.595 207H269.998L264.487 187.167L258.976 207H255.379ZM259.207 200.895L260.263 197.694H268.711L269.767 200.895H259.207ZM284.175 212.346C282.855 212.346 281.678 212.137 280.644 211.719C279.61 211.301 278.752 210.707 278.07 209.937C277.41 209.167 276.948 208.276 276.684 207.264L280.182 207.033C280.424 207.759 280.853 208.331 281.469 208.749C282.085 209.167 282.987 209.376 284.175 209.376C285.649 209.376 286.771 209.068 287.541 208.452C288.333 207.836 288.729 206.923 288.729 205.713V203.139C288.311 204.041 287.651 204.756 286.749 205.284C285.869 205.812 284.846 206.076 283.68 206.076C282.228 206.076 280.93 205.713 279.786 204.987C278.642 204.261 277.751 203.271 277.113 202.017C276.475 200.741 276.156 199.278 276.156 197.628C276.156 195.912 276.464 194.416 277.08 193.14C277.718 191.864 278.598 190.863 279.72 190.137C280.842 189.411 282.118 189.048 283.548 189.048C284.78 189.048 285.858 189.334 286.782 189.906C287.728 190.456 288.41 191.215 288.828 192.183L288.861 189.444H292.062V205.482C292.062 206.956 291.743 208.199 291.105 209.211C290.467 210.245 289.554 211.026 288.366 211.554C287.2 212.082 285.803 212.346 284.175 212.346ZM284.142 203.106C285.506 203.106 286.606 202.622 287.442 201.654C288.278 200.686 288.707 199.333 288.729 197.595C288.751 196.407 288.564 195.406 288.168 194.592C287.794 193.756 287.255 193.118 286.551 192.678C285.869 192.238 285.066 192.018 284.142 192.018C282.712 192.018 281.601 192.513 280.809 193.503C280.039 194.471 279.654 195.835 279.654 197.595C279.654 199.333 280.05 200.686 280.842 201.654C281.656 202.622 282.756 203.106 284.142 203.106ZM296.801 207V189.444H299.87L299.969 194.031L299.606 193.767C299.826 192.689 300.211 191.809 300.761 191.127C301.333 190.423 302.026 189.906 302.84 189.576C303.654 189.224 304.523 189.048 305.447 189.048C306.767 189.048 307.856 189.345 308.714 189.939C309.572 190.511 310.221 191.303 310.661 192.315C311.101 193.305 311.321 194.427 311.321 195.681V207H307.988V196.539C307.988 195.021 307.691 193.877 307.097 193.107C306.525 192.337 305.656 191.952 304.49 191.952C303.676 191.952 302.939 192.128 302.279 192.48C301.641 192.832 301.124 193.36 300.728 194.064C300.332 194.746 300.134 195.593 300.134 196.605V207H296.801ZM323.848 207.396C322.22 207.396 320.79 207.022 319.558 206.274C318.348 205.526 317.402 204.459 316.72 203.073C316.06 201.687 315.73 200.07 315.73 198.222C315.73 196.352 316.06 194.735 316.72 193.371C317.402 191.985 318.348 190.918 319.558 190.17C320.79 189.422 322.22 189.048 323.848 189.048C325.476 189.048 326.895 189.422 328.105 190.17C329.337 190.918 330.283 191.985 330.943 193.371C331.625 194.735 331.966 196.352 331.966 198.222C331.966 200.07 331.625 201.687 330.943 203.073C330.283 204.459 329.337 205.526 328.105 206.274C326.895 207.022 325.476 207.396 323.848 207.396ZM323.848 204.327C325.322 204.327 326.455 203.788 327.247 202.71C328.061 201.632 328.468 200.136 328.468 198.222C328.468 196.308 328.061 194.812 327.247 193.734C326.455 192.656 325.322 192.117 323.848 192.117C322.374 192.117 321.23 192.656 320.416 193.734C319.624 194.812 319.228 196.308 319.228 198.222C319.228 200.136 319.624 201.632 320.416 202.71C321.23 203.788 322.374 204.327 323.848 204.327ZM343.899 207.396C342.337 207.396 340.995 207.132 339.873 206.604C338.751 206.076 337.882 205.372 337.266 204.492C336.65 203.59 336.298 202.589 336.21 201.489L339.609 201.291C339.785 202.237 340.225 202.996 340.929 203.568C341.633 204.118 342.634 204.393 343.932 204.393C345.142 204.393 346.066 204.228 346.704 203.898C347.342 203.568 347.661 203.051 347.661 202.347C347.661 201.907 347.551 201.544 347.331 201.258C347.111 200.95 346.693 200.697 346.077 200.499C345.483 200.279 344.603 200.059 343.437 199.839C341.699 199.509 340.335 199.124 339.345 198.684C338.377 198.222 337.684 197.65 337.266 196.968C336.848 196.264 336.639 195.417 336.639 194.427C336.639 193.415 336.892 192.502 337.398 191.688C337.926 190.874 338.696 190.236 339.708 189.774C340.72 189.29 341.974 189.048 343.47 189.048C345.032 189.048 346.319 189.323 347.331 189.873C348.343 190.401 349.135 191.094 349.707 191.952C350.279 192.81 350.642 193.745 350.796 194.757L347.397 194.955C347.265 194.383 347.034 193.888 346.704 193.47C346.374 193.03 345.934 192.689 345.384 192.447C344.834 192.183 344.196 192.051 343.47 192.051C342.304 192.051 341.446 192.282 340.896 192.744C340.346 193.206 340.071 193.767 340.071 194.427C340.071 194.955 340.203 195.384 340.467 195.714C340.731 196.022 341.171 196.286 341.787 196.506C342.403 196.704 343.239 196.902 344.295 197.1C346.077 197.386 347.452 197.76 348.42 198.222C349.388 198.662 350.07 199.212 350.466 199.872C350.862 200.532 351.06 201.346 351.06 202.314C351.06 203.37 350.752 204.283 350.136 205.053C349.542 205.801 348.706 206.384 347.628 206.802C346.572 207.198 345.329 207.396 343.899 207.396ZM365.93 207C364.148 207 362.817 206.593 361.937 205.779C361.079 204.943 360.65 203.667 360.65 201.951V185.319H363.983V201.786C363.983 202.6 364.17 203.205 364.544 203.601C364.94 203.997 365.523 204.195 366.293 204.195H370.814V207H365.93ZM355.106 192.249V189.444H370.814V192.249H355.106ZM382.682 207V189.444H386.048V207H382.682ZM375.818 207V204.195H391.922V207H375.818ZM376.148 192.249V189.444H385.751V192.249H376.148ZM382.484 186.903V183.438H385.916V186.903H382.484ZM403.393 207.396C401.765 207.396 400.324 207.022 399.07 206.274C397.838 205.504 396.881 204.437 396.199 203.073C395.539 201.687 395.209 200.07 395.209 198.222C395.209 196.374 395.539 194.768 396.199 193.404C396.881 192.04 397.838 190.973 399.07 190.203C400.324 189.433 401.765 189.048 403.393 189.048C404.735 189.048 405.934 189.301 406.99 189.807C408.046 190.291 408.915 191.006 409.597 191.952C410.279 192.898 410.73 194.031 410.95 195.351L407.551 195.582C407.287 194.46 406.792 193.602 406.066 193.008C405.34 192.414 404.46 192.117 403.426 192.117C401.952 192.117 400.786 192.667 399.928 193.767C399.092 194.845 398.674 196.33 398.674 198.222C398.674 200.114 399.092 201.61 399.928 202.71C400.786 203.788 401.952 204.327 403.426 204.327C404.482 204.327 405.384 204.019 406.132 203.403C406.902 202.765 407.408 201.83 407.65 200.598L411.049 200.796C410.829 202.138 410.367 203.304 409.663 204.294C408.959 205.262 408.068 206.021 406.99 206.571C405.934 207.121 404.735 207.396 403.393 207.396ZM442.571 200.697C441.867 200.697 441.218 200.532 440.624 200.202C440.03 199.85 439.557 199.377 439.205 198.783C438.853 198.189 438.677 197.54 438.677 196.836C438.677 196.11 438.853 195.461 439.205 194.889C439.557 194.295 440.03 193.833 440.624 193.503C441.218 193.151 441.867 192.975 442.571 192.975C443.297 192.975 443.946 193.151 444.518 193.503C445.112 193.833 445.585 194.295 445.937 194.889C446.289 195.461 446.465 196.11 446.465 196.836C446.465 197.54 446.289 198.189 445.937 198.783C445.585 199.377 445.112 199.85 444.518 200.202C443.946 200.532 443.297 200.697 442.571 200.697ZM482.244 207.528C480.352 207.528 478.746 207.033 477.426 206.043C476.128 205.053 475.138 203.645 474.456 201.819C473.774 199.993 473.433 197.826 473.433 195.318C473.433 192.788 473.774 190.61 474.456 188.784C475.138 186.958 476.128 185.55 477.426 184.56C478.746 183.548 480.352 183.042 482.244 183.042C484.378 183.042 486.171 183.746 487.623 185.154C489.097 186.562 490.065 188.531 490.527 191.061L486.897 191.259C486.567 189.631 485.984 188.399 485.148 187.563C484.334 186.705 483.366 186.276 482.244 186.276C481.1 186.276 480.143 186.628 479.373 187.332C478.603 188.036 478.02 189.059 477.624 190.401C477.228 191.743 477.03 193.382 477.03 195.318C477.03 197.232 477.228 198.86 477.624 200.202C478.02 201.522 478.603 202.534 479.373 203.238C480.143 203.942 481.1 204.294 482.244 204.294C483.454 204.294 484.488 203.832 485.346 202.908C486.204 201.984 486.776 200.631 487.062 198.849L490.659 199.014C490.263 201.698 489.328 203.788 487.854 205.284C486.38 206.78 484.51 207.528 482.244 207.528ZM501.932 207.396C500.304 207.396 498.874 207.022 497.642 206.274C496.432 205.526 495.486 204.459 494.804 203.073C494.144 201.687 493.814 200.07 493.814 198.222C493.814 196.352 494.144 194.735 494.804 193.371C495.486 191.985 496.432 190.918 497.642 190.17C498.874 189.422 500.304 189.048 501.932 189.048C503.56 189.048 504.979 189.422 506.189 190.17C507.421 190.918 508.367 191.985 509.027 193.371C509.709 194.735 510.05 196.352 510.05 198.222C510.05 200.07 509.709 201.687 509.027 203.073C508.367 204.459 507.421 205.526 506.189 206.274C504.979 207.022 503.56 207.396 501.932 207.396ZM501.932 204.327C503.406 204.327 504.539 203.788 505.331 202.71C506.145 201.632 506.552 200.136 506.552 198.222C506.552 196.308 506.145 194.812 505.331 193.734C504.539 192.656 503.406 192.117 501.932 192.117C500.458 192.117 499.314 192.656 498.5 193.734C497.708 194.812 497.312 196.308 497.312 198.222C497.312 200.136 497.708 201.632 498.5 202.71C499.314 203.788 500.458 204.327 501.932 204.327ZM513.007 207V189.444H515.911L516.043 193.404L515.68 193.305C515.9 191.963 516.329 190.918 516.967 190.17C517.627 189.422 518.452 189.048 519.442 189.048C520.498 189.048 521.29 189.422 521.818 190.17C522.368 190.918 522.709 192.029 522.841 193.503H522.478C522.676 192.095 523.127 191.006 523.831 190.236C524.535 189.444 525.415 189.048 526.471 189.048C527.857 189.048 528.858 189.532 529.474 190.5C530.112 191.446 530.431 192.997 530.431 195.153V207H527.197V195.714C527.197 194.306 527.043 193.327 526.735 192.777C526.449 192.227 525.998 191.952 525.382 191.952C524.986 191.952 524.623 192.084 524.293 192.348C523.985 192.612 523.743 193.03 523.567 193.602C523.391 194.152 523.303 194.878 523.303 195.78V207H520.135V195.714C520.135 194.35 519.992 193.382 519.706 192.81C519.442 192.238 518.991 191.952 518.353 191.952C517.935 191.952 517.572 192.084 517.264 192.348C516.956 192.612 516.703 193.03 516.505 193.602C516.329 194.152 516.241 194.878 516.241 195.78V207H513.007ZM533.982 211.95V189.444H537.15L537.216 193.437L536.82 193.239C537.26 191.875 537.975 190.841 538.965 190.137C539.977 189.411 541.165 189.048 542.529 189.048C544.223 189.048 545.609 189.477 546.687 190.335C547.765 191.171 548.568 192.282 549.096 193.668C549.624 195.054 549.888 196.572 549.888 198.222C549.888 199.872 549.624 201.39 549.096 202.776C548.568 204.162 547.765 205.284 546.687 206.142C545.609 206.978 544.223 207.396 542.529 207.396C541.627 207.396 540.791 207.253 540.021 206.967C539.251 206.659 538.591 206.23 538.041 205.68C537.513 205.108 537.128 204.426 536.886 203.634L537.315 203.172V211.95H533.982ZM541.902 204.327C543.31 204.327 544.41 203.799 545.202 202.743C545.994 201.687 546.39 200.18 546.39 198.222C546.39 196.264 545.994 194.757 545.202 193.701C544.41 192.645 543.31 192.117 541.902 192.117C540.978 192.117 540.175 192.348 539.493 192.81C538.811 193.25 538.272 193.921 537.876 194.823C537.502 195.725 537.315 196.858 537.315 198.222C537.315 199.586 537.502 200.719 537.876 201.621C538.25 202.523 538.778 203.205 539.46 203.667C540.164 204.107 540.978 204.327 541.902 204.327ZM561.294 207.396C559.666 207.396 558.236 207.022 557.004 206.274C555.794 205.526 554.848 204.459 554.166 203.073C553.506 201.687 553.176 200.07 553.176 198.222C553.176 196.352 553.506 194.735 554.166 193.371C554.848 191.985 555.794 190.918 557.004 190.17C558.236 189.422 559.666 189.048 561.294 189.048C562.922 189.048 564.341 189.422 565.551 190.17C566.783 190.918 567.729 191.985 568.389 193.371C569.071 194.735 569.412 196.352 569.412 198.222C569.412 200.07 569.071 201.687 568.389 203.073C567.729 204.459 566.783 205.526 565.551 206.274C564.341 207.022 562.922 207.396 561.294 207.396ZM561.294 204.327C562.768 204.327 563.901 203.788 564.693 202.71C565.507 201.632 565.914 200.136 565.914 198.222C565.914 196.308 565.507 194.812 564.693 193.734C563.901 192.656 562.768 192.117 561.294 192.117C559.82 192.117 558.676 192.656 557.862 193.734C557.07 194.812 556.674 196.308 556.674 198.222C556.674 200.136 557.07 201.632 557.862 202.71C558.676 203.788 559.82 204.327 561.294 204.327ZM581.345 207.396C579.783 207.396 578.441 207.132 577.319 206.604C576.197 206.076 575.328 205.372 574.712 204.492C574.096 203.59 573.744 202.589 573.656 201.489L577.055 201.291C577.231 202.237 577.671 202.996 578.375 203.568C579.079 204.118 580.08 204.393 581.378 204.393C582.588 204.393 583.512 204.228 584.15 203.898C584.788 203.568 585.107 203.051 585.107 202.347C585.107 201.907 584.997 201.544 584.777 201.258C584.557 200.95 584.139 200.697 583.523 200.499C582.929 200.279 582.049 200.059 580.883 199.839C579.145 199.509 577.781 199.124 576.791 198.684C575.823 198.222 575.13 197.65 574.712 196.968C574.294 196.264 574.085 195.417 574.085 194.427C574.085 193.415 574.338 192.502 574.844 191.688C575.372 190.874 576.142 190.236 577.154 189.774C578.166 189.29 579.42 189.048 580.916 189.048C582.478 189.048 583.765 189.323 584.777 189.873C585.789 190.401 586.581 191.094 587.153 191.952C587.725 192.81 588.088 193.745 588.242 194.757L584.843 194.955C584.711 194.383 584.48 193.888 584.15 193.47C583.82 193.03 583.38 192.689 582.83 192.447C582.28 192.183 581.642 192.051 580.916 192.051C579.75 192.051 578.892 192.282 578.342 192.744C577.792 193.206 577.517 193.767 577.517 194.427C577.517 194.955 577.649 195.384 577.913 195.714C578.177 196.022 578.617 196.286 579.233 196.506C579.849 196.704 580.685 196.902 581.741 197.1C583.523 197.386 584.898 197.76 585.866 198.222C586.834 198.662 587.516 199.212 587.912 199.872C588.308 200.532 588.506 201.346 588.506 202.314C588.506 203.37 588.198 204.283 587.582 205.053C586.988 205.801 586.152 206.384 585.074 206.802C584.018 207.198 582.775 207.396 581.345 207.396ZM598.492 207.396C597.392 207.396 596.402 207.198 595.522 206.802C594.642 206.406 593.938 205.845 593.41 205.119C592.904 204.393 592.651 203.546 592.651 202.578C592.651 201.082 593.102 199.916 594.004 199.08C594.928 198.244 596.314 197.65 598.162 197.298L603.838 196.11C603.838 194.746 603.541 193.723 602.947 193.041C602.353 192.359 601.462 192.018 600.274 192.018C599.174 192.018 598.316 192.271 597.7 192.777C597.084 193.283 596.666 193.987 596.446 194.889L592.948 194.658C593.278 192.986 594.081 191.633 595.357 190.599C596.633 189.565 598.272 189.048 600.274 189.048C602.518 189.048 604.223 189.686 605.389 190.962C606.577 192.238 607.171 193.998 607.171 196.242V203.172C607.171 203.568 607.259 203.854 607.435 204.03C607.611 204.184 607.864 204.261 608.194 204.261H609.184V207C609.052 207.022 608.832 207.044 608.524 207.066C608.238 207.088 607.952 207.099 607.666 207.099C606.874 207.099 606.203 206.967 605.653 206.703C605.103 206.439 604.685 206.032 604.399 205.482C604.135 204.91 603.981 204.195 603.937 203.337H604.465C604.333 204.107 603.992 204.8 603.442 205.416C602.892 206.032 602.188 206.516 601.33 206.868C600.472 207.22 599.526 207.396 598.492 207.396ZM598.987 204.657C600.043 204.657 600.934 204.47 601.66 204.096C602.386 203.722 602.925 203.194 603.277 202.512C603.651 201.83 603.838 201.027 603.838 200.103V198.75L598.954 199.74C597.898 199.938 597.161 200.246 596.743 200.664C596.325 201.082 596.116 201.632 596.116 202.314C596.116 203.04 596.369 203.612 596.875 204.03C597.381 204.448 598.085 204.657 598.987 204.657ZM622.041 207.396C620.809 207.396 619.731 207.121 618.807 206.571C617.883 205.999 617.168 205.24 616.662 204.294L616.563 207H613.461V183.57H616.794V191.919C617.234 191.149 617.905 190.478 618.807 189.906C619.731 189.334 620.809 189.048 622.041 189.048C623.537 189.048 624.835 189.422 625.935 190.17C627.035 190.896 627.882 191.952 628.476 193.338C629.07 194.702 629.367 196.33 629.367 198.222C629.367 200.114 629.07 201.753 628.476 203.139C627.882 204.503 627.035 205.559 625.935 206.307C624.835 207.033 623.537 207.396 622.041 207.396ZM621.48 204.327C622.866 204.327 623.944 203.788 624.714 202.71C625.484 201.61 625.869 200.114 625.869 198.222C625.869 196.308 625.484 194.812 624.714 193.734C623.944 192.656 622.888 192.117 621.546 192.117C620.556 192.117 619.709 192.359 619.005 192.843C618.301 193.327 617.751 194.02 617.355 194.922C616.981 195.824 616.794 196.924 616.794 198.222C616.794 199.476 616.981 200.565 617.355 201.489C617.751 202.391 618.29 203.095 618.972 203.601C619.676 204.085 620.512 204.327 621.48 204.327ZM639.254 207V188.553C639.254 187.871 639.056 187.343 638.66 186.969C638.286 186.573 637.758 186.375 637.076 186.375H633.05V183.57H637.439C639.133 183.57 640.409 184.01 641.267 184.89C642.147 185.748 642.587 187.024 642.587 188.718V207H639.254ZM632.39 207V204.195H648.494V207H632.39ZM660.46 207.396C658.81 207.396 657.369 207.022 656.137 206.274C654.927 205.526 653.981 204.459 653.299 203.073C652.639 201.687 652.309 200.07 652.309 198.222C652.309 196.374 652.639 194.768 653.299 193.404C653.981 192.04 654.916 190.973 656.104 190.203C657.314 189.433 658.733 189.048 660.361 189.048C661.923 189.048 663.298 189.422 664.486 190.17C665.674 190.896 666.598 191.952 667.258 193.338C667.94 194.702 668.281 196.352 668.281 198.288V199.212H655.807C655.917 200.884 656.379 202.16 657.193 203.04C658.029 203.898 659.129 204.327 660.493 204.327C661.527 204.327 662.385 204.085 663.067 203.601C663.749 203.095 664.222 202.446 664.486 201.654L667.984 201.885C667.478 203.557 666.565 204.899 665.245 205.911C663.947 206.901 662.352 207.396 660.46 207.396ZM655.807 196.539H664.684C664.552 195.043 664.09 193.932 663.298 193.206C662.528 192.48 661.549 192.117 660.361 192.117C659.129 192.117 658.117 192.491 657.325 193.239C656.533 193.987 656.027 195.087 655.807 196.539ZM699.803 200.697C699.099 200.697 698.45 200.532 697.856 200.202C697.262 199.85 696.789 199.377 696.437 198.783C696.085 198.189 695.909 197.54 695.909 196.836C695.909 196.11 696.085 195.461 696.437 194.889C696.789 194.295 697.262 193.833 697.856 193.503C698.45 193.151 699.099 192.975 699.803 192.975C700.529 192.975 701.178 193.151 701.75 193.503C702.344 193.833 702.817 194.295 703.169 194.889C703.521 195.461 703.697 196.11 703.697 196.836C703.697 197.54 703.521 198.189 703.169 198.783C702.817 199.377 702.344 199.85 701.75 200.202C701.178 200.532 700.529 200.697 699.803 200.697ZM737.662 207V186.837H730.798V183.57H747.958V186.837H741.094V207H737.662ZM753.555 211.95V209.145H755.7C756.316 209.145 756.767 209.046 757.053 208.848C757.361 208.672 757.592 208.375 757.746 207.957L758.34 206.406H757.218L750.816 189.444H754.413L759.396 203.271L764.049 189.444H767.613L760.617 208.98C760.265 210.036 759.715 210.795 758.967 211.257C758.241 211.719 757.262 211.95 756.03 211.95H753.555ZM771.428 211.95V189.444H774.596L774.662 193.437L774.266 193.239C774.706 191.875 775.421 190.841 776.411 190.137C777.423 189.411 778.611 189.048 779.975 189.048C781.669 189.048 783.055 189.477 784.133 190.335C785.211 191.171 786.014 192.282 786.542 193.668C787.07 195.054 787.334 196.572 787.334 198.222C787.334 199.872 787.07 201.39 786.542 202.776C786.014 204.162 785.211 205.284 784.133 206.142C783.055 206.978 781.669 207.396 779.975 207.396C779.073 207.396 778.237 207.253 777.467 206.967C776.697 206.659 776.037 206.23 775.487 205.68C774.959 205.108 774.574 204.426 774.332 203.634L774.761 203.172V211.95H771.428ZM779.348 204.327C780.756 204.327 781.856 203.799 782.648 202.743C783.44 201.687 783.836 200.18 783.836 198.222C783.836 196.264 783.44 194.757 782.648 193.701C781.856 192.645 780.756 192.117 779.348 192.117C778.424 192.117 777.621 192.348 776.939 192.81C776.257 193.25 775.718 193.921 775.322 194.823C774.948 195.725 774.761 196.858 774.761 198.222C774.761 199.586 774.948 200.719 775.322 201.621C775.696 202.523 776.224 203.205 776.906 203.667C777.61 204.107 778.424 204.327 779.348 204.327ZM798.97 207.396C797.32 207.396 795.879 207.022 794.647 206.274C793.437 205.526 792.491 204.459 791.809 203.073C791.149 201.687 790.819 200.07 790.819 198.222C790.819 196.374 791.149 194.768 791.809 193.404C792.491 192.04 793.426 190.973 794.614 190.203C795.824 189.433 797.243 189.048 798.871 189.048C800.433 189.048 801.808 189.422 802.996 190.17C804.184 190.896 805.108 191.952 805.768 193.338C806.45 194.702 806.791 196.352 806.791 198.288V199.212H794.317C794.427 200.884 794.889 202.16 795.703 203.04C796.539 203.898 797.639 204.327 799.003 204.327C800.037 204.327 800.895 204.085 801.577 203.601C802.259 203.095 802.732 202.446 802.996 201.654L806.494 201.885C805.988 203.557 805.075 204.899 803.755 205.911C802.457 206.901 800.862 207.396 798.97 207.396ZM794.317 196.539H803.194C803.062 195.043 802.6 193.932 801.808 193.206C801.038 192.48 800.059 192.117 798.871 192.117C797.639 192.117 796.627 192.491 795.835 193.239C795.043 193.987 794.537 195.087 794.317 196.539ZM817.14 207.396C815.644 207.396 814.346 207.033 813.246 206.307C812.146 205.559 811.299 204.503 810.705 203.139C810.111 201.753 809.814 200.114 809.814 198.222C809.814 196.33 810.111 194.702 810.705 193.338C811.299 191.952 812.146 190.896 813.246 190.17C814.346 189.422 815.644 189.048 817.14 189.048C818.372 189.048 819.45 189.334 820.374 189.906C821.298 190.478 821.969 191.149 822.387 191.919V183.57H825.72V207H822.618L822.519 204.294C822.035 205.24 821.331 205.999 820.407 206.571C819.483 207.121 818.394 207.396 817.14 207.396ZM817.701 204.327C818.669 204.327 819.494 204.085 820.176 203.601C820.88 203.095 821.419 202.391 821.793 201.489C822.189 200.565 822.387 199.476 822.387 198.222C822.387 196.924 822.189 195.824 821.793 194.922C821.419 194.02 820.88 193.327 820.176 192.843C819.472 192.359 818.625 192.117 817.635 192.117C816.293 192.117 815.237 192.656 814.467 193.734C813.697 194.812 813.312 196.308 813.312 198.222C813.312 200.114 813.697 201.61 814.467 202.71C815.237 203.788 816.315 204.327 817.701 204.327Z" fill="#635985"/>
<rect x="245" y="162" width="589" height="5" rx="2.5" fill="#635985"/>
<rect x="57" y="162" width="113" height="5" rx="2.5" fill="#635985"/>
<path d="M664.242 145L679.218 55.4H705.202L721.714 87.4L748.466 55.4H774.962L759.986 145H736.306L745.01 92.776L715.826 127.08L696.882 91.368L687.922 145H664.242ZM775.367 145L790.343 55.4H820.295C829.937 55.4853 838.215 57.5333 845.127 61.544C852.039 65.5547 857.073 71.016 860.231 77.928C863.473 84.7547 864.327 92.648 862.791 101.608C861.767 108.008 859.591 113.853 856.263 119.144C852.935 124.435 848.711 129 843.59 132.84C838.556 136.68 832.753 139.667 826.183 141.8C819.697 143.933 812.743 145 805.319 145H775.367ZM802.759 122.6H808.263C812.017 122.6 815.601 122.045 819.015 120.936C822.513 119.741 825.628 118.077 828.359 115.944C831.175 113.811 833.479 111.293 835.271 108.392C837.148 105.491 838.385 102.291 838.983 98.792C839.665 94.6107 839.196 90.984 837.575 87.912C835.953 84.7547 833.351 82.28 829.767 80.488C826.183 78.696 821.788 77.8 816.583 77.8H810.311L802.759 122.6Z" fill="#E90064"/>
<path d="M51.5065 145V142.312L54.0665 141.416C55.6025 140.989 56.6692 140.264 57.2665 139.24C57.8638 138.131 58.2052 136.637 58.2905 134.76V70.376C58.2052 68.584 57.9065 67.2187 57.3945 66.28C56.8825 65.256 55.8158 64.488 54.1945 63.976L51.5065 63.08V60.392H112.435L113.331 80.872H109.747L104.627 69.352C103.944 67.7307 103.176 66.4933 102.323 65.64C101.469 64.7013 100.189 64.232 98.4825 64.232H76.7225C76.6372 69.5227 76.5945 74.984 76.5945 80.616C76.5945 86.1627 76.5945 92.4347 76.5945 99.432H89.2665C90.9732 99.432 92.2532 99.0053 93.1065 98.152C94.0452 97.2133 94.8985 95.976 95.6665 94.44L97.8425 89.576H100.659V113.256H97.8425L95.5385 108.392C94.8558 106.856 94.0878 105.619 93.2345 104.68C92.3812 103.741 91.1012 103.272 89.3945 103.272H76.5945C76.5945 109.416 76.5945 114.707 76.5945 119.144C76.5945 123.581 76.5945 127.549 76.5945 131.048C76.6798 134.461 76.7225 137.832 76.7225 141.16H101.299C103.005 141.16 104.328 140.733 105.267 139.88C106.205 138.941 106.973 137.661 107.571 136.04L112.307 124.52H115.891L114.995 145H51.5065ZM121.102 145V142.568L124.558 141.8C126.435 141.373 127.928 140.776 129.038 140.008C130.232 139.24 131.384 138.088 132.494 136.552L146.446 117.096L129.934 90.984C129.08 89.704 128.227 88.7227 127.374 88.04C126.606 87.3573 125.496 86.8453 124.046 86.504L121.87 85.992V83.56H153.87V85.992L151.95 86.504C150.414 86.8453 149.475 87.528 149.134 88.552C148.878 89.4907 149.176 90.6427 150.03 92.008L159.886 106.984L170.382 92.392C171.32 91.0267 171.747 89.832 171.662 88.808C171.662 87.784 170.851 87.1013 169.23 86.76L166.414 85.992V83.56H186.126V85.992L183.054 86.632C181.262 87.0587 179.854 87.6987 178.83 88.552C177.806 89.32 176.739 90.472 175.63 92.008L161.934 110.056L178.702 136.168C180.664 139.069 183.395 140.989 186.894 141.928L189.454 142.568V145H155.022V142.568L156.942 142.184C158.478 141.757 159.416 141.032 159.758 140.008C160.184 138.984 159.928 137.832 158.99 136.552L148.622 120.424L137.358 136.424C136.419 137.789 136.12 138.984 136.462 140.008C136.803 141.032 137.699 141.715 139.15 142.056L141.454 142.568V145H121.102ZM191.126 174.568V172.136L192.79 171.624C194.496 171.197 195.691 170.472 196.374 169.448C197.056 168.509 197.398 167.144 197.398 165.352C197.398 161.853 197.398 158.525 197.398 155.368C197.483 152.296 197.526 149.309 197.526 146.408V111.208C197.526 108.563 197.526 106.301 197.526 104.424C197.526 102.461 197.483 100.285 197.398 97.896C197.398 96.104 197.099 94.7387 196.502 93.8C195.904 92.776 194.752 92.0933 193.046 91.752L191.126 91.368V89.064L211.734 81.64L213.27 82.92L214.422 87.656C220.31 83.6453 226.966 81.64 234.39 81.64C241.643 81.64 247.446 84.3707 251.798 89.832C256.235 95.2933 258.454 103.357 258.454 114.024C258.454 124.349 256.022 132.413 251.158 138.216C246.379 143.933 239.851 146.792 231.574 146.792C228.246 146.792 225.088 146.493 222.102 145.896C219.2 145.299 216.598 144.403 214.294 143.208V147.048C214.294 149.608 214.294 152.381 214.294 155.368C214.379 158.355 214.422 161.597 214.422 165.096C214.422 168.509 215.915 170.643 218.902 171.496L221.333 172.136V174.568H191.126ZM225.558 141.672C230.08 141.672 233.622 139.667 236.182 135.656C238.827 131.56 240.15 124.52 240.15 114.536C240.15 104.637 238.912 97.7253 236.438 93.8C233.963 89.7893 230.464 87.784 225.942 87.784C224.32 87.784 222.571 88.04 220.694 88.552C218.816 89.064 216.811 89.9173 214.678 91.112V139.496C218.091 140.947 221.718 141.672 225.558 141.672ZM264.376 145V142.568L266.296 141.928C268.002 141.501 269.154 140.776 269.752 139.752C270.434 138.728 270.776 137.363 270.776 135.656V98.152C270.69 96.2747 270.349 94.8667 269.752 93.928C269.154 92.904 268.002 92.2213 266.296 91.88L264.376 91.368V89.064L285.24 81.64L286.776 83.048L287.928 94.312V95.208C289.208 92.8187 290.829 90.6 292.792 88.552C294.754 86.504 296.888 84.84 299.192 83.56C301.496 82.28 303.8 81.64 306.104 81.64C309.346 81.64 311.778 82.4933 313.4 84.2C315.021 85.9067 315.832 88.0827 315.832 90.728C315.832 93.6293 315.021 95.848 313.4 97.384C311.778 98.8347 309.816 99.56 307.512 99.56C304.098 99.56 301.154 98.024 298.68 94.952L298.424 94.696C297.57 93.672 296.589 93.1173 295.479 93.032C294.456 92.8613 293.432 93.3733 292.408 94.568C291.554 95.4213 290.744 96.4453 289.976 97.64C289.293 98.7493 288.653 100.072 288.056 101.608V135.144C288.056 136.765 288.397 138.131 289.08 139.24C289.762 140.264 290.914 140.989 292.536 141.416L296.376 142.568V145H264.376ZM350.126 81.64C355.502 81.64 360.11 82.7493 363.95 84.968C367.79 87.1867 370.734 90.2587 372.782 94.184C374.915 98.024 375.982 102.461 375.982 107.496C375.982 108.605 375.939 109.672 375.854 110.696C375.768 111.635 375.598 112.531 375.342 113.384H336.814C336.899 122.173 338.52 128.488 341.678 132.328C344.92 136.168 349.614 138.088 355.758 138.088C360.024 138.088 363.48 137.405 366.126 136.04C368.771 134.589 371.203 132.584 373.422 130.024L375.47 131.944C372.91 136.637 369.411 140.307 364.974 142.952C360.622 145.512 355.416 146.792 349.358 146.792C343.299 146.792 337.966 145.512 333.358 142.952C328.75 140.392 325.123 136.723 322.478 131.944C319.918 127.08 318.638 121.277 318.638 114.536C318.638 107.539 320.131 101.608 323.118 96.744C326.19 91.88 330.115 88.168 334.894 85.608C339.758 82.9627 344.835 81.64 350.126 81.64ZM349.486 85.352C347.011 85.352 344.835 86.0773 342.958 87.528C341.166 88.8933 339.715 91.368 338.606 94.952C337.582 98.4507 336.984 103.4 336.814 109.8H359.726C360.664 101.181 360.323 94.952 358.702 91.112C357.08 87.272 354.008 85.352 349.486 85.352ZM404.645 146.792C400.549 146.792 396.837 146.323 393.509 145.384C390.266 144.531 387.151 143.293 384.165 141.672V126.568H387.621L391.461 133.864C393.082 137.021 394.917 139.368 396.965 140.904C399.098 142.44 401.786 143.208 405.029 143.208C409.039 143.208 412.239 142.355 414.629 140.648C417.018 138.856 418.213 136.467 418.213 133.48C418.213 130.749 417.317 128.531 415.525 126.824C413.733 125.117 410.533 123.539 405.925 122.088L400.293 120.296C395.258 118.76 391.247 116.456 388.26 113.384C385.359 110.227 383.909 106.301 383.909 101.608C383.909 97.9387 384.89 94.6107 386.853 91.624C388.815 88.552 391.674 86.12 395.429 84.328C399.183 82.536 403.749 81.64 409.125 81.64C412.623 81.64 415.823 82.0667 418.725 82.92C421.711 83.688 424.613 84.7973 427.429 86.248L426.661 99.944H423.333L419.365 92.648C417.999 89.9173 416.591 88.04 415.141 87.016C413.775 85.9067 411.642 85.352 408.741 85.352C405.669 85.352 402.938 86.1627 400.549 87.784C398.245 89.32 397.093 91.496 397.093 94.312C397.093 96.9573 398.074 99.1333 400.037 100.84C401.999 102.461 405.157 103.997 409.509 105.448L415.013 107.112C421.242 109.075 425.679 111.677 428.325 114.92C430.97 118.163 432.293 122.045 432.293 126.568C432.293 132.627 429.861 137.533 424.997 141.288C420.218 144.957 413.434 146.792 404.645 146.792ZM460.27 146.792C456.174 146.792 452.462 146.323 449.134 145.384C445.891 144.531 442.776 143.293 439.79 141.672V126.568H443.246L447.086 133.864C448.707 137.021 450.542 139.368 452.59 140.904C454.723 142.44 457.411 143.208 460.654 143.208C464.664 143.208 467.864 142.355 470.254 140.648C472.643 138.856 473.838 136.467 473.838 133.48C473.838 130.749 472.942 128.531 471.15 126.824C469.358 125.117 466.158 123.539 461.55 122.088L455.918 120.296C450.883 118.76 446.872 116.456 443.885 113.384C440.984 110.227 439.534 106.301 439.534 101.608C439.534 97.9387 440.515 94.6107 442.478 91.624C444.44 88.552 447.299 86.12 451.054 84.328C454.808 82.536 459.374 81.64 464.75 81.64C468.248 81.64 471.448 82.0667 474.35 82.92C477.336 83.688 480.238 84.7973 483.054 86.248L482.286 99.944H478.958L474.99 92.648C473.624 89.9173 472.216 88.04 470.766 87.016C469.4 85.9067 467.267 85.352 464.366 85.352C461.294 85.352 458.563 86.1627 456.174 87.784C453.87 89.32 452.718 91.496 452.718 94.312C452.718 96.9573 453.699 99.1333 455.662 100.84C457.624 102.461 460.782 103.997 465.134 105.448L470.638 107.112C476.867 109.075 481.304 111.677 483.95 114.92C486.595 118.163 487.918 122.045 487.918 126.568C487.918 132.627 485.486 137.533 480.622 141.288C475.843 144.957 469.059 146.792 460.27 146.792ZM508.349 74.6C505.533 74.6 503.143 73.704 501.181 71.912C499.218 70.12 498.237 67.8587 498.237 65.128C498.237 62.312 499.218 60.0507 501.181 58.344C503.143 56.552 505.533 55.656 508.349 55.656C511.165 55.656 513.554 56.552 515.517 58.344C517.479 60.0507 518.461 62.312 518.461 65.128C518.461 67.8587 517.479 70.12 515.517 71.912C513.554 73.704 511.165 74.6 508.349 74.6ZM493.629 145V142.568L495.549 142.056C497.255 141.544 498.407 140.776 499.005 139.752C499.602 138.728 499.943 137.363 500.029 135.656V112.104C500.029 109.459 500.029 107.027 500.029 104.808C500.029 102.504 499.986 100.157 499.901 97.768C499.901 96.0613 499.559 94.7387 498.877 93.8C498.279 92.776 497.127 92.0933 495.421 91.752L493.629 91.368V89.064L516.029 81.64L517.565 83.048L517.181 101.224V135.784C517.181 137.491 517.479 138.856 518.077 139.88C518.759 140.904 519.911 141.672 521.533 142.184L522.941 142.568V145H493.629ZM555.664 145.384L533.135 91.24C532.197 88.8507 530.533 87.3147 528.144 86.632L525.456 85.992V83.56H557.84V85.992L554.512 86.76C551.781 87.4427 550.97 89.192 552.08 92.008L565.52 127.72L578.064 92.264C578.49 90.8133 578.576 89.6613 578.32 88.808C578.149 87.8693 577.338 87.2293 575.888 86.888L572.176 85.992V83.56H591.632V85.992L587.408 87.016C584.933 87.6133 583.269 89.1493 582.416 91.624L563.088 145.384H555.664ZM623.751 81.64C629.127 81.64 633.735 82.7493 637.575 84.968C641.415 87.1867 644.359 90.2587 646.407 94.184C648.54 98.024 649.607 102.461 649.607 107.496C649.607 108.605 649.564 109.672 649.479 110.696C649.393 111.635 649.223 112.531 648.967 113.384H610.439C610.524 122.173 612.145 128.488 615.303 132.328C618.545 136.168 623.239 138.088 629.383 138.088C633.649 138.088 637.105 137.405 639.751 136.04C642.396 134.589 644.828 132.584 647.047 130.024L649.095 131.944C646.535 136.637 643.036 140.307 638.599 142.952C634.247 145.512 629.041 146.792 622.983 146.792C616.924 146.792 611.591 145.512 606.983 142.952C602.375 140.392 598.748 136.723 596.103 131.944C593.543 127.08 592.263 121.277 592.263 114.536C592.263 107.539 593.756 101.608 596.743 96.744C599.815 91.88 603.74 88.168 608.519 85.608C613.383 82.9627 618.46 81.64 623.751 81.64ZM623.111 85.352C620.636 85.352 618.46 86.0773 616.583 87.528C614.791 88.8933 613.34 91.368 612.231 94.952C611.207 98.4507 610.609 103.4 610.439 109.8H633.351C634.289 101.181 633.948 94.952 632.327 91.112C630.705 87.272 627.633 85.352 623.111 85.352Z" fill="#060047"/>
<defs>
<filter id="filter0_d_170_198" x="0" y="0" width="908" height="263" filterUnits="userSpaceOnUse" color-interpolation-filters="sRGB">
<feFlood flood-opacity="0" result="BackgroundImageFix"/>
<feColorMatrix in="SourceAlpha" type="matrix" values="0 0 0 0 0 0 0 0 0 0 0 0 0 0 0 0 0 0 127 0" result="hardAlpha"/>
<feOffset dy="4"/>
<feGaussianBlur stdDeviation="2"/>
<feComposite in2="hardAlpha" operator="out"/>
<feColorMatrix type="matrix" values="0 0 0 0 0 0 0 0 0 0 0 0 0 0 0 0 0 0 0.25 0"/>
<feBlend mode="normal" in2="BackgroundImageFix" result="effect1_dropShadow_170_198"/>
<feBlend mode="normal" in="SourceGraphic" in2="effect1_dropShadow_170_198" result="shape"/>
</filter>
</defs>
</svg>
