<svg width="422" height="501" viewBox="0 0 422 501" fill="none" xmlns="http://www.w3.org/2000/svg">
<path d="M324.74 251.108V20C324.74 8.95431 315.786 0 304.74 0H210.736H116.731C105.685 0 96.731 8.95431 96.731 20V251.108C96.731 262.154 87.7767 271.108 76.731 271.108H45.4649C28.0627 271.108 18.9627 291.794 30.7218 304.622L195.993 484.917C203.919 493.564 217.552 493.564 225.479 484.917L390.749 304.622C402.508 291.794 393.408 271.108 376.006 271.108H344.74C333.694 271.108 324.74 262.154 324.74 251.108Z" fill="#E90064"/>
<path d="M304.74 0C315.786 0 324.74 8.95431 324.74 20V251.107C324.74 262.153 333.694 271.107 344.74 271.107H376.007C393.408 271.108 402.508 291.794 390.75 304.622L225.478 484.917C217.552 493.564 203.92 493.564 195.993 484.917L30.7214 304.622C18.9629 291.794 28.0628 271.108 45.4646 271.107H76.7312C87.7768 271.107 96.7312 262.153 96.7312 251.107V20C96.7312 8.95431 105.686 0 116.731 0H304.74ZM210.546 153.489C198.341 153.48 185.833 157.173 173.024 164.568C160.419 171.846 150.143 181.986 142.197 194.986C134.337 207.666 130.096 221.919 129.474 237.747C129.057 253.457 133.665 269.658 143.302 286.349C152.585 302.428 163.627 314.509 176.425 322.589C189.308 330.348 203.002 334.112 217.507 333.879C232.011 333.646 246.481 329.363 260.917 321.028C275.352 312.694 285.993 302.48 292.837 290.387C299.766 277.973 303.049 264.408 302.685 249.691L295.161 247.93C293.4 257.088 290.367 265.216 286.062 272.315C281.64 279.211 274.345 285.594 264.179 291.463C249.541 299.915 235.714 301.791 222.7 297.093C209.889 292.277 197.33 279.445 185.022 258.598L276.821 205.598C276.256 203.21 275.428 200.838 274.339 198.481C273.132 195.922 271.765 193.319 270.237 190.673C263.304 178.664 254.651 169.547 244.28 163.322C233.995 156.777 222.75 153.499 210.546 153.489ZM176.611 174.303C187.387 168.081 197.351 168.435 206.502 175.363C215.653 182.292 225.045 196.682 234.677 218.53L180.087 250.049C171.68 234.549 166.287 221.922 163.909 212.168C161.616 202.093 161.665 194.194 164.054 188.473C166.53 182.43 170.715 177.707 176.611 174.303Z" fill="#060047"/>
</svg>
