<svg width="306" height="133" viewBox="0 0 306 133" fill="none" xmlns="http://www.w3.org/2000/svg">
<rect width="306" height="133" rx="30" fill="#B6AED1"/>
<path d="M108.724 108V23.3H133.529L153.978 53.55L174.427 23.3H199.232V108H176.847V57.906L154.099 91.06L131.109 57.906V108H108.724ZM213.772 108V23.3H242.086C251.363 23.3 259.551 25.115 266.649 28.745C273.829 32.375 279.435 37.3763 283.468 43.749C287.502 50.041 289.518 57.3413 289.518 65.65C289.518 73.878 287.502 81.1783 283.468 87.551C279.435 93.9237 273.829 98.925 266.649 102.555C259.551 106.185 251.363 108 242.086 108H213.772ZM236.157 86.825H242.086C245.636 86.825 248.903 86.3007 251.887 85.252C254.872 84.2033 257.453 82.7513 259.631 80.896C261.809 79.0407 263.503 76.8223 264.713 74.241C265.923 71.6597 266.528 68.796 266.528 65.65C266.528 62.504 265.923 59.6403 264.713 57.059C263.503 54.4777 261.809 52.2593 259.631 50.404C257.453 48.5487 254.872 47.0967 251.887 46.048C248.903 44.9993 245.636 44.475 242.086 44.475H236.157V86.825Z" fill="#E90064"/>
<path d="M60.2819 24.84C67.3379 24.84 73.3859 26.296 78.4259 29.208C83.4659 32.12 87.3299 36.152 90.0179 41.304C92.8179 46.344 94.2179 52.168 94.2179 58.776C94.2179 60.232 94.1619 61.632 94.0499 62.976C93.9379 64.208 93.7139 65.384 93.3779 66.504H42.8099C42.9219 78.04 45.0499 86.328 49.1939 91.368C53.4499 96.408 59.6099 98.928 67.6739 98.928C73.2739 98.928 77.8099 98.032 81.2819 96.24C84.7539 94.336 87.9459 91.704 90.8579 88.344L93.5459 90.864C90.1859 97.024 85.5939 101.84 79.7699 105.312C74.0579 108.672 67.2259 110.352 59.2739 110.352C51.3219 110.352 44.3219 108.672 38.2739 105.312C32.2259 101.952 27.4659 97.136 23.9939 90.864C20.6339 84.48 18.9539 76.864 18.9539 68.016C18.9539 58.832 20.9139 51.048 24.8339 44.664C28.8659 38.28 34.0179 33.408 40.2899 30.048C46.6739 26.576 53.3379 24.84 60.2819 24.84ZM59.4419 29.712C56.1939 29.712 53.3379 30.664 50.8739 32.568C48.5219 34.36 46.6179 37.608 45.1619 42.312C43.8179 46.904 43.0339 53.4 42.8099 61.8H72.8819C74.1139 50.488 73.6659 42.312 71.5379 37.272C69.4099 32.232 65.3779 29.712 59.4419 29.712Z" fill="#060047"/>
</svg>
