<svg width="191" height="191" viewBox="0 0 191 191" fill="none" xmlns="http://www.w3.org/2000/svg">
<circle cx="95.5" cy="95.5" r="95.5" fill="#B6AED1"/>
<path d="M155.614 101.079V58C155.614 56.8954 154.718 56 153.614 56H138.5H123.386C122.282 56 121.386 56.8954 121.386 58V101.079C121.386 102.183 120.491 103.079 119.386 103.079H107.455C105.729 103.079 104.813 105.118 105.96 106.408L137.005 141.319C137.801 142.214 139.199 142.214 139.995 141.319L171.04 106.408C172.187 105.118 171.271 103.079 169.545 103.079H157.614C156.509 103.079 155.614 102.183 155.614 101.079Z" fill="#E90064"/>
<path d="M60.2819 55.84C67.3379 55.84 73.3859 57.296 78.4259 60.208C83.4659 63.12 87.3299 67.152 90.0179 72.304C92.8179 77.344 94.2179 83.168 94.2179 89.776C94.2179 91.232 94.1619 92.632 94.0499 93.976C93.9379 95.208 93.7139 96.384 93.3779 97.504H42.8099C42.9219 109.04 45.0499 117.328 49.1939 122.368C53.4499 127.408 59.6099 129.928 67.6739 129.928C73.2739 129.928 77.8099 129.032 81.2819 127.24C84.7539 125.336 87.9459 122.704 90.8579 119.344L93.5459 121.864C90.1859 128.024 85.5939 132.84 79.7699 136.312C74.0579 139.672 67.2259 141.352 59.2739 141.352C51.3219 141.352 44.3219 139.672 38.2739 136.312C32.2259 132.952 27.4659 128.136 23.9939 121.864C20.6339 115.48 18.9539 107.864 18.9539 99.016C18.9539 89.832 20.9139 82.048 24.8339 75.664C28.8659 69.28 34.0179 64.408 40.2899 61.048C46.6739 57.576 53.3379 55.84 60.2819 55.84ZM59.4419 60.712C56.1939 60.712 53.3379 61.664 50.8739 63.568C48.5219 65.36 46.6179 68.608 45.1619 73.312C43.8179 77.904 43.0339 84.4 42.8099 92.8H72.8819C74.1139 81.488 73.6659 73.312 71.5379 68.272C69.4099 63.232 65.3779 60.712 59.4419 60.712Z" fill="#060047"/>
</svg>
